<svg height="24" viewBox="0 0 24 24" width="24" xmlns="http://www.w3.org/2000/svg" class="logo" aria-hidden="true">
    <path d="M12 20c4.376 0 8-3.631 8-8 0-4.376-3.631-8-8.008-8C7.624 4 4 7.624 4 12c0 4.369 3.631 8 8 8zm0-1.333A6.634 6.634 0 0 1 5.341 12a6.628 6.628 0 0 1 6.651-6.667A6.653 6.653 0 0 1 18.667 12 6.636 6.636 0 0 1 12 18.667zm-1.467-3.6 4.463-2.636a.483.483 0 0 0 0-.839L10.533 8.95c-.337-.204-.784-.047-.784.33v5.458c0 .377.416.55.784.33z" fill-opacity=".95" fill="red"></path>
</svg>
